custom-analysis
version=1
nRows=6
nColumns=98
inDegrees=no

This file contains tibia displacement and acting force.

Units are S.I. units (seconds, meters, Newtons, ...)
Angles are in degrees.

endheader
time	APT	SIT	knee_angle	aACL_R_force	pACL_R_force	aPCL_R_force	pPCL_R_force	aMCL_R_force	mMCL_R_force	pMCL_R_force	aLCL_R_force	mLCL_R_force	pLCL_R_force	aPCL_L_force	pPCL_L_force	aMCL_L_force	aLCL_L_force	aACL_R_length	pACL_R_length	aPCL_R_length	pPCL_R_length	aMCL_R_length	mMCL_R_length	pMCL_R_length	aLCL_R_length	mLCL_R_length	pLCL_R_length	aPCL_L_length	pPCL_L_length	aMCL_L_length	aLCL_L_length	aACL_R_strain	pACL_R_strain	aPCL_R_strain	pPCL_R_strain	aMCL_R_strain	mMCL_R_strain	pMCL_R_strain	aLCL_R_strain	mLCL_R_strain	pLCL_R_strain	aPCL_L_strain	pPCL_L_strain	aMCL_L_strain	aLCL_L_strain	femur_lat_meniscii_r.femur_lat_r.force.X	femur_lat_meniscii_r.femur_lat_r.force.Y	femur_lat_meniscii_r.femur_lat_r.force.Z	femur_lat_meniscii_r.femur_lat_r.torque.X	femur_lat_meniscii_r.femur_lat_r.torque.Y	femur_lat_meniscii_r.femur_lat_r.torque.Z	femur_lat_meniscii_r.meniscus_lat_r.force.X	femur_lat_meniscii_r.meniscus_lat_r.force.Y	femur_lat_meniscii_r.meniscus_lat_r.force.Z	femur_lat_meniscii_r.meniscus_lat_r.torque.X	femur_lat_meniscii_r.meniscus_lat_r.torque.Y	femur_lat_meniscii_r.meniscus_lat_r.torque.Z	femur_med_meniscii_r.femur_med_r.force.X	femur_med_meniscii_r.femur_med_r.force.Y	femur_med_meniscii_r.femur_med_r.force.Z	femur_med_meniscii_r.femur_med_r.torque.X	femur_med_meniscii_r.femur_med_r.torque.Y	femur_med_meniscii_r.femur_med_r.torque.Z	femur_med_meniscii_r.meniscus_med_r.force.X	femur_med_meniscii_r.meniscus_med_r.force.Y	femur_med_meniscii_r.meniscus_med_r.force.Z	femur_med_meniscii_r.meniscus_med_r.torque.X	femur_med_meniscii_r.meniscus_med_r.torque.Y	femur_med_meniscii_r.meniscus_med_r.torque.Z	femur_med_tibia_r.tibia_upper_r.force.X	femur_med_tibia_r.tibia_upper_r.force.Y	femur_med_tibia_r.tibia_upper_r.force.Z	femur_med_tibia_r.tibia_upper_r.torque.X	femur_med_tibia_r.tibia_upper_r.torque.Y	femur_med_tibia_r.tibia_upper_r.torque.Z	femur_med_tibia_r.femur_med_r.force.X	femur_med_tibia_r.femur_med_r.force.Y	femur_med_tibia_r.femur_med_r.force.Z	femur_med_tibia_r.femur_med_r.torque.X	femur_med_tibia_r.femur_med_r.torque.Y	femur_med_tibia_r.femur_med_r.torque.Z	femur_lat_tibia_r.tibia_upper_r.force.X	femur_lat_tibia_r.tibia_upper_r.force.Y	femur_lat_tibia_r.tibia_upper_r.force.Z	femur_lat_tibia_r.tibia_upper_r.torque.X	femur_lat_tibia_r.tibia_upper_r.torque.Y	femur_lat_tibia_r.tibia_upper_r.torque.Z	femur_lat_tibia_r.femur_lat_r.force.X	femur_lat_tibia_r.femur_lat_r.force.Y	femur_lat_tibia_r.femur_lat_r.force.Z	femur_lat_tibia_r.femur_lat_r.torque.X	femur_lat_tibia_r.femur_lat_r.torque.Y	femur_lat_tibia_r.femur_lat_r.torque.Z	femur_lat_meniscii_force_r	femur_med_meniscii_force_r	femur_lat_tibia_force_r	femur_med_tibia_force_r
      0.06809611	      0.00274256	      0.00241053	     12.16023411	      3.82523138	      1.89869558	      0.00000000	     20.21049236	      0.00000000	    -16.88099445	    -32.08617882	     -4.53857991	      0.00000000	      0.00000000	      0.00000000	      0.00000000	      0.00000001	      0.00000000	      0.03210452	      0.02606803	      0.03058623	      0.03005725	      0.05647969	      0.06014465	      0.06111513	      0.05681685	      0.05451986	      0.05194752	      0.01525851	      0.01651186	      0.06550154	      0.04489616	      0.03544589	      0.04027855	     -0.01637113	      0.00566964	     -0.05909526	      0.00587268	      0.04064730	      0.01499977	     -0.03193863	     -0.00754988	      0.00000079	     -0.32847694	      0.00000060	     -0.00000086	    152.58248742	    496.34410577	    -45.21722604	      6.11607310	      3.70025683	     61.19032224	   -152.58248742	   -496.34410577	     45.21722604	     13.59609718	     -4.32063785	     -1.48277835	     51.08804359	    773.46702758	     70.93457511	     -9.65665015	     -1.30777084	     20.62570608	    -51.08804359	   -773.46702758	    -70.93457511	    -13.82279885	      0.88796152	      0.86209132	      0.00000000	      0.00000000	      0.00000000	      0.00000000	      0.00000000	      0.00000000	      0.00000000	      0.00000000	      0.00000000	      0.00000000	      0.00000000	      0.00000000	      0.00000000	      0.00000000	      0.00000000	      0.00000000	      0.00000000	      0.00000000	      0.00000000	      0.00000000	      0.00000000	      0.00000000	      0.00000000	      0.00000000	    521.23265854	    778.39125438	      0.00000000	      0.00000000
      0.06945137	      0.00283804	      0.00251464	     12.57555990	      2.05906344	     -0.34663121	      0.00000000	     21.86494289	      0.00000000	    -18.09513419	    -34.45977702	     -6.55502517	      0.00000000	      0.00000000	      0.00000000	      0.00000000	      0.00000001	      0.00000000	      0.03208209	      0.02603073	      0.03064298	      0.03008186	      0.05649346	      0.06011146	      0.06103060	      0.05680680	      0.05448136	      0.05188142	      0.01525851	      0.01651186	      0.06550154	      0.04489616	      0.03472252	      0.03878993	     -0.01454637	      0.00649293	     -0.05886590	      0.00531761	      0.03920783	      0.01482024	     -0.03262234	     -0.00881261	      0.00000079	     -0.32847694	      0.00000060	     -0.00000086	    145.61033883	    495.83659465	    -47.36306868	      6.99405993	      3.51183423	     58.21192111	   -145.61033883	   -495.83659465	     47.36306868	     13.53330507	     -4.08663797	     -1.12128232	     52.92943842	    747.33805575	     71.69090530	    -10.59740143	     -1.29868295	     21.30457024	    -52.92943842	   -747.33805575	    -71.69090530	    -13.29638113	      0.85899229	      0.91975581	      0.00000000	      0.00000000	      0.00000000	      0.00000000	      0.00000000	      0.00000000	      0.00000000	      0.00000000	      0.00000000	      0.00000000	      0.00000000	      0.00000000	      0.00000000	      0.00000000	      0.00000000	      0.00000000	      0.00000000	      0.00000000	      0.00000000	      0.00000000	      0.00000000	      0.00000000	      0.00000000	      0.00000000	    518.94080552	    752.63223485	      0.00000000	      0.00000000
      0.07080662	      0.00293314	      0.00262233	     12.99590727	      1.52378570	     -1.43235533	      0.00000000	     23.86844675	      0.00000000	    -17.75566434	    -35.20074200	     -7.32454907	      0.00000000	      0.00000000	      0.00000000	      0.00000000	      0.00000001	      0.00000000	      0.03205720	      0.02599089	      0.03070029	      0.03010688	      0.05650680	      0.06007739	      0.06094464	      0.05679430	      0.05444010	      0.05181236	      0.01525851	      0.01651186	      0.06550154	      0.04489616	      0.03391972	      0.03720037	     -0.01270324	      0.00733005	     -0.05864353	      0.00474785	      0.03774410	      0.01459697	     -0.03335486	     -0.01013204	      0.00000079	     -0.32847694	      0.00000060	     -0.00000086	    148.21756632	    508.59351441	    -45.32374289	      5.77298194	      3.60027123	     59.18161054	   -148.21756632	   -508.59351441	     45.32374289	     14.02839871	     -4.18601742	     -1.00005786	     43.02351125	    730.77431102	     69.88842190	    -10.18869019	     -1.04649953	     17.07706807	    -43.02351125	   -730.77431102	    -69.88842190	    -13.09369330	      0.64994093	      1.40216920	      0.00000000	      0.00000000	      0.00000000	      0.00000000	      0.00000000	      0.00000000	      0.00000000	      0.00000000	      0.00000000	      0.00000000	      0.00000000	      0.00000000	      0.00000000	      0.00000000	      0.00000000	      0.00000000	      0.00000000	      0.00000000	      0.00000000	      0.00000000	      0.00000000	      0.00000000	      0.00000000	      0.00000000	    531.68604602	    735.36828031	      0.00000000	      0.00000000
      0.07212362	      0.00302805	      0.00272685	     13.40963220	      2.02669748	     -1.48887444	      0.00000000	     27.62085604	      0.00000000	    -15.37052932	    -33.79740482	     -5.49478320	      0.00000000	      0.00000000	      0.00000000	      0.00000000	      0.00000001	      0.00000000	      0.03203474	      0.02595360	      0.03075809	      0.03013329	      0.05652302	      0.06004700	      0.06086335	      0.05678306	      0.05440069	      0.05174570	      0.01525851	      0.01651186	      0.06550154	      0.04489616	      0.03319546	      0.03571205	     -0.01084427	      0.00821365	     -0.05837341	      0.00423952	      0.03636001	      0.01439623	     -0.03405460	     -0.01140569	      0.00000079	     -0.32847694	      0.00000060	     -0.00000086	    155.33517845	    508.79648764	    -43.60191454	      5.02945045	      3.79883759	     62.11322613	   -155.33517845	   -508.79648764	     43.60191454	     14.10704778	     -4.41646965	     -1.14520736	     38.99848943	    715.16282391	     72.01792207	    -11.44587263	     -0.94848185	     15.29322696	    -38.99848943	   -715.16282391	    -72.01792207	    -12.72846561	      0.55616696	      1.69326284	      0.00000000	      0.00000000	      0.00000000	      0.00000000	      0.00000000	      0.00000000	      0.00000000	      0.00000000	      0.00000000	      0.00000000	      0.00000000	      0.00000000	      0.00000000	      0.00000000	      0.00000000	      0.00000000	      0.00000000	      0.00000000	      0.00000000	      0.00000000	      0.00000000	      0.00000000	      0.00000000	      0.00000000	    533.76400259	    719.83701488	      0.00000000	      0.00000000
      0.07344061	      0.00312531	      0.00283124	     13.82845181	      1.18684035	     -2.72952702	      0.00000000	     29.65912511	      0.00000000	    -15.55987515	    -34.96797336	     -6.17520258	      0.00000000	      0.00000000	      0.00000000	      0.00000000	      0.00000001	      0.00000000	      0.03201351	      0.02591727	      0.03081815	      0.03016173	      0.05654265	      0.06001937	      0.06078437	      0.05677334	      0.05436251	      0.05168002	      0.01525851	      0.01651186	      0.06550154	      0.04489616	      0.03251075	      0.03426246	     -0.00891297	      0.00916529	     -0.05804639	      0.00377754	      0.03501513	      0.01422249	     -0.03473257	     -0.01266032	      0.00000079	     -0.32847694	      0.00000060	     -0.00000086	    149.64814432	    499.90925185	    -43.21262126	      5.08055433	      3.65292589	     59.72323895	   -149.64814432	   -499.90925185	     43.21262126	     13.85779213	     -4.23738007	     -0.89981473	     43.43835859	    680.61499255	     74.28493090	    -13.26556457	     -1.06744169	     17.13213767	    -43.43835859	   -680.61499255	    -74.28493090	    -11.94439384	      0.63777509	      1.54616932	      0.00000000	      0.00000000	      0.00000000	      0.00000000	      0.00000000	      0.00000000	      0.00000000	      0.00000000	      0.00000000	      0.00000000	      0.00000000	      0.00000000	      0.00000000	      0.00000000	      0.00000000	      0.00000000	      0.00000000	      0.00000000	      0.00000000	      0.00000000	      0.00000000	      0.00000000	      0.00000000	      0.00000000	    523.61355771	    686.03346131	      0.00000000	      0.00000000
      0.07475760	      0.00322185	      0.00293932	     14.25201056	     -0.04684902	     -4.36068236	      0.00000000	     31.75959918	      0.00000000	    -16.18790789	    -36.57914393	     -7.43019148	      0.00000000	      0.00000000	      0.00000000	      0.00000000	      0.00000001	      0.00000000	      0.03198962	      0.02587847	      0.03087851	      0.03019008	      0.05656160	      0.05999052	      0.06070362	      0.05676179	      0.05432215	      0.05161197	      0.01525851	      0.01651186	      0.06550154	      0.04489616	      0.03174024	      0.03271380	     -0.00697176	      0.01011371	     -0.05773074	      0.00329495	      0.03364022	      0.01401631	     -0.03544928	     -0.01396041	      0.00000079	     -0.32847694	      0.00000060	     -0.00000086	    145.65656089	    497.38478244	    -45.60974469	      6.12935274	      3.53586611	     58.01653974	   -145.65656089	   -497.38478244	     45.60974469	     13.70882227	     -4.08671961	     -0.66971143	     51.06142525	    657.02315556	     75.21573679	    -14.20441278	     -1.25841911	     20.20377803	    -51.06142525	   -657.02315556	    -75.21573679	    -11.47585834	      0.77974905	      1.41096148	      0.00000000	      0.00000000	      0.00000000	      0.00000000	      0.00000000	      0.00000000	      0.00000000	      0.00000000	      0.00000000	      0.00000000	      0.00000000	      0.00000000	      0.00000000	      0.00000000	      0.00000000	      0.00000000	      0.00000000	      0.00000000	      0.00000000	      0.00000000	      0.00000000	      0.00000000	      0.00000000	      0.00000000	    520.27656525	    663.28282290	      0.00000000	      0.00000000
